<?xml version="1.0" encoding="utf-8"?>
<!-- Generator: Adobe Illustrator 23.0.1, SVG Export Plug-In . SVG Version: 6.00 Build 0)  -->
<svg version="1.1" id="Capa_1" xmlns="http://www.w3.org/2000/svg" xmlns:xlink="http://www.w3.org/1999/xlink" x="0px" y="0px"
	 viewBox="0 0 217.5 66.9" style="enable-background:new 0 0 217.5 66.9;" xml:space="preserve">
<style type="text/css">
	.st0{fill:none;stroke:#CB4F24;stroke-width:1.23;stroke-linecap:round;stroke-linejoin:round;stroke-dasharray:2.43,3.65;}
	.st1{fill:none;stroke:#68A8DE;stroke-width:1.23;stroke-miterlimit:10;}
	.st2{fill:#4B7DBF;}
	.st3{fill:#CB4F24;}
</style>
<title>HyperHyperSpaceLogo</title>
<path class="st0" d="M58.2,14.8l0.7,26.1c-0.2,2.1-2.2,3.6-4.3,3.4l-25.5-2.9c-2.1-0.2-3.6-2.1-3.4-4.2c0,0,0,0,0,0L25,11
	c0.2-2.1,2.1-3.6,4.2-3.4c0,0,0,0,0,0l25.5,2.9C56.9,10.7,58.4,12.6,58.2,14.8C58.2,14.7,58.2,14.8,58.2,14.8z"/>
<path class="st1" d="M41.7,28.7l0.7,26.1c-0.2,2.1-2.1,3.6-4.2,3.4c0,0,0,0,0,0l-25.5-2.9c-2.1-0.2-3.6-2.1-3.4-4.2c0,0,0,0,0,0
	L8.6,25c0.2-2.1,2.1-3.6,4.3-3.4l25.5,2.9C40.4,24.7,42,26.6,41.7,28.7z"/>
<path class="st1" d="M47.1,24l0.7,26.1c-0.2,2.1-2.1,3.6-4.2,3.4c0,0,0,0,0,0l-25.4-2.9c-2.1-0.2-3.6-2.1-3.4-4.2c0,0,0,0,0,0
	L14,20.2c0.2-2.1,2.1-3.6,4.3-3.4l25.5,2.9C45.9,20,47.4,21.9,47.1,24C47.1,24,47.1,24,47.1,24z"/>
<path class="st1" d="M52.6,19.2l0.7,26.1C53,47.5,51.1,49,49,48.7c0,0,0,0,0,0l-25.5-2.9c-2.1-0.2-3.6-2.1-3.4-4.2c0,0,0,0,0,0
	l-0.7-26.1c0.2-2.1,2.1-3.6,4.2-3.4c0,0,0,0,0,0L49.1,15C51.2,15.2,52.8,17.1,52.6,19.2C52.6,19.2,52.6,19.2,52.6,19.2z"/>
<path class="st2" d="M82.9,11.7v11.7h-2v-4.9h-5.4v4.9h-2V11.7h2v4.9h5.4v-4.9H82.9z"/>
<path class="st2" d="M97.3,11.7l-3.7,6.1v5.6h-2v-5.6L88,11.7h2.3l2.4,3.9l2.4-3.9H97.3z"/>
<path class="st2" d="M107.5,11.7c1.9,0.1,3.3,1.7,3.2,3.6c-0.1,1.7-1.5,3.1-3.2,3.2h-3.1v4.9h-2V11.7H107.5z M108.9,15.1
	c0-0.8-0.6-1.4-1.4-1.5h-3.1v2.9h3.1C108.3,16.6,108.9,15.9,108.9,15.1L108.9,15.1z"/>
<path class="st2" d="M117.9,13.7v2.9h4.5v2h-4.5v2.9h5.4v1.9h-7.3V11.7h7.3v2H117.9z"/>
<path class="st2" d="M137.5,23.5h-2.4l-3.4-4.9h-1.4v4.9h-2V11.7h5c1.9,0,3.4,1.5,3.5,3.4c0,1.7-1.2,3.1-2.8,3.4L137.5,23.5z
	 M133.4,16.6c0.8,0.1,1.5-0.5,1.6-1.3c0.1-0.8-0.5-1.5-1.3-1.6c-0.1,0-0.2,0-0.2,0h-3.1v2.9H133.4z"/>
<path class="st3" d="M151.9,11.7v11.7h-2v-4.9h-5.4v4.9h-2V11.7h2v4.9h5.4v-4.9H151.9z"/>
<path class="st3" d="M166.4,11.7l-3.7,6.1v5.6h-2v-5.6l-3.7-6.1h2.3l2.4,3.9l2.4-3.9H166.4z"/>
<path class="st3" d="M176.5,11.7c1.9,0.1,3.3,1.7,3.2,3.6c-0.1,1.7-1.5,3.1-3.2,3.2h-3.1v4.9h-2V11.7H176.5z M177.9,15.1
	c0-0.8-0.6-1.4-1.4-1.5h-3.1v2.9h3.1C177.3,16.6,177.9,15.9,177.9,15.1L177.9,15.1z"/>
<path class="st3" d="M186.9,13.7v2.9h4.5v2h-4.5v2.9h5.4v1.9H185V11.7h7.3v2H186.9z"/>
<path class="st3" d="M206.5,23.5h-2.4l-3.4-4.9h-1.5v4.9h-2V11.7h5c1.9,0,3.4,1.5,3.5,3.4c0,1.7-1.2,3.1-2.8,3.4L206.5,23.5z
	 M202.4,16.6c0.8,0.1,1.5-0.5,1.6-1.3c0.1-0.8-0.5-1.5-1.3-1.6c-0.1,0-0.2,0-0.2,0h-3.1v2.9H202.4z"/>
<path class="st2" d="M81.7,29c0.9,0.8,1.3,1.9,1.3,3.1v0.3h-2V32c0-0.6-0.3-1.2-0.8-1.6c-0.6-0.4-1.3-0.6-2-0.6
	c-0.8,0-1.5,0.1-2.2,0.5c-0.5,0.3-0.8,0.9-0.8,1.5c0,0.4,0.1,0.9,0.5,1.2c0.3,0.3,0.7,0.6,1.1,0.7c0.5,0.2,1.1,0.4,1.8,0.6
	c0.8,0.2,1.6,0.5,2.4,0.8c0.6,0.3,1.2,0.7,1.6,1.2c0.5,0.6,0.7,1.4,0.7,2.2c0.1,1.3-0.4,2.6-1.4,3.6c-1.1,0.8-2.5,1.2-3.8,1.1
	c-1.4,0.1-2.7-0.3-3.8-1.1c-0.9-0.8-1.4-2.1-1.4-3.3c0-0.1,0-0.3,0-0.4h1.9c0,0.1,0,0.3,0,0.5c0,0.7,0.3,1.4,0.9,1.9
	c0.7,0.5,1.5,0.7,2.4,0.6c0.8,0,1.7-0.2,2.4-0.6c0.9-0.6,1.2-1.8,0.6-2.8c-0.1-0.1-0.1-0.2-0.2-0.2c-0.3-0.4-0.7-0.6-1.2-0.8
	c-0.5-0.2-1.1-0.4-1.9-0.6c-0.8-0.2-1.6-0.5-2.4-0.8c-0.6-0.3-1.1-0.7-1.5-1.2c-0.4-0.6-0.7-1.4-0.6-2.1c-0.1-1.2,0.4-2.4,1.3-3.2
	c1-0.7,2.3-1.1,3.5-1C79.4,27.8,80.7,28.2,81.7,29z"/>
<path class="st2" d="M78.1,43.4c-1.4,0.1-2.9-0.3-4-1.2c-1-0.9-1.5-2.2-1.4-3.5c0-0.2,0-0.3,0-0.5v-0.2h2.4v0.3c0,0.1,0,0.3,0,0.4
	c-0.1,0.7,0.2,1.3,0.8,1.7c0.7,0.4,1.5,0.6,2.3,0.6c0.8,0,1.6-0.2,2.2-0.6c0.5-0.3,0.8-0.9,0.8-1.4c0-0.4-0.1-0.9-0.4-1.2
	c-0.3-0.3-0.7-0.6-1.1-0.7c-0.5-0.2-1.1-0.4-1.9-0.6c-0.8-0.2-1.6-0.5-2.4-0.8c-0.6-0.3-1.2-0.7-1.6-1.3c-0.5-0.7-0.7-1.5-0.7-2.3
	c-0.1-1.3,0.4-2.5,1.4-3.4c1.1-0.8,2.4-1.1,3.7-1c1.3-0.1,2.6,0.3,3.7,1.1c0.9,0.8,1.4,2,1.4,3.3v0.5h-2.4V32c0-0.6-0.2-1.1-0.7-1.4
	c-0.6-0.4-1.2-0.6-1.9-0.5c-0.7,0-1.4,0.1-2.1,0.5c-0.4,0.3-0.7,0.8-0.7,1.3c0,0.4,0.1,0.7,0.4,1c0.3,0.3,0.6,0.5,1,0.7
	c0.4,0.2,1,0.4,1.8,0.6c0.8,0.2,1.7,0.5,2.5,0.9c0.7,0.3,1.2,0.7,1.7,1.3c0.5,0.7,0.8,1.5,0.7,2.3c0.1,1.4-0.4,2.8-1.5,3.7
	C80.9,43.1,79.5,43.5,78.1,43.4z M73.2,38.6v0.2c-0.1,1.2,0.4,2.3,1.3,3.1c1.1,0.8,2.4,1.2,3.7,1.1c1.3,0.1,2.6-0.3,3.7-1.1
	c0.9-0.9,1.4-2.1,1.3-3.4c0-0.7-0.2-1.4-0.6-2c-0.4-0.5-0.9-0.9-1.5-1.2c-0.8-0.3-1.6-0.6-2.4-0.8c-0.6-0.2-1.2-0.4-1.9-0.6
	c-0.5-0.2-0.9-0.4-1.2-0.8c-0.3-0.4-0.5-0.8-0.5-1.3c0-0.7,0.3-1.3,0.9-1.7c0.7-0.4,1.5-0.6,2.3-0.6c0.8,0,1.5,0.2,2.2,0.6
	c0.6,0.4,0.9,1.1,0.9,1.8v0.1h1.5c0.1-1.1-0.4-2.2-1.2-2.9c-1-0.7-2.2-1.1-3.4-1c-1.2-0.1-2.4,0.3-3.4,1c-0.9,0.7-1.3,1.9-1.2,3
	c0,0.7,0.2,1.4,0.6,2c0.4,0.5,0.9,0.9,1.4,1.1c0.8,0.3,1.6,0.6,2.4,0.8c0.8,0.2,1.5,0.4,1.9,0.6c0.5,0.2,0.9,0.5,1.3,0.9
	c0.8,1,0.7,2.4-0.3,3.2c0,0-0.1,0.1-0.1,0.1c-1.6,0.9-3.4,0.9-5,0c-0.7-0.5-1-1.3-1-2.1c0-0.1,0-0.1,0-0.2L73.2,38.6z"/>
<path class="st2" d="M93.9,27.8c2.5,0.3,4.4,2.5,4.1,5.1c-0.2,2.2-2,3.9-4.1,4.1h-3.8v6.6h-2.4V27.8H93.9z M95.7,32.4
	c0.1-1-0.7-1.9-1.8-2h-3.8v4h3.8C95,34.3,95.7,33.4,95.7,32.4z"/>
<path class="st2" d="M110.8,43.6h-2.6l-1-2.6h-5l-1,2.6h-2.6l6.1-15.9L110.8,43.6z M106.2,38.3l-1.5-3.8l-1.5,3.8H106.2z"/>
<path class="st2" d="M124.7,41.4c-2.6,2.8-6.9,2.9-9.6,0.4c-0.2-0.2-0.4-0.4-0.5-0.5c-2.8-3.2-2.8-7.9,0-11.1
	c2.4-2.9,6.7-3.2,9.6-0.7c0.2,0.2,0.4,0.3,0.5,0.5l-1.7,1.9c-1.7-1.8-4.6-1.9-6.4-0.2c-0.1,0.1-0.2,0.2-0.3,0.4
	c-1.8,2.1-1.8,5.3,0,7.4c1.6,1.9,4.5,2.1,6.4,0.5c0.1-0.1,0.2-0.2,0.4-0.3L124.7,41.4z"/>
<path class="st2" d="M130.9,30.4v4h5.6V37h-5.6v4h6.6v2.6h-9V27.8h9v2.6H130.9z"/>
</svg>
